<svg xmlns="http://www.w3.org/2000/svg" viewBox="0 0 420 120" role="img" aria-labelledby="title desc">
  <title id="title">Nexora</title>
  <desc id="desc">Nexora purple and blue ribbon mark with wordmark</desc>
  <defs>
    <linearGradient id="g1" x1="0" y1="0" x2="1" y2="1">
      <stop offset="0" stop-color="#4f6cff"/>
      <stop offset="1" stop-color="#7b35ff"/>
    </linearGradient>
    <linearGradient id="g2" x1="0" y1="1" x2="1" y2="0">
      <stop offset="0" stop-color="#5d2cff"/>
      <stop offset="1" stop-color="#d34cff"/>
    </linearGradient>
    <linearGradient id="text" x1="0" y1="0" x2="1" y2="0">
      <stop offset="0" stop-color="#ffffff"/>
      <stop offset="1" stop-color="#d8d9ff"/>
    </linearGradient>
    <filter id="glow" x="-40%" y="-40%" width="180%" height="180%">
      <feGaussianBlur stdDeviation="5" result="b"/>
      <feMerge><feMergeNode in="b"/><feMergeNode in="SourceGraphic"/></feMerge>
    </filter>
  </defs>
  <g transform="translate(8 8)" filter="url(#glow)">
    <path fill="url(#g1)" d="M18 78 48 14c5-11 17-13 27-4l69 62-37 28-44-39-45 42Z"/>
    <path fill="url(#g2)" d="m64 43 42 38 54-47-24 64c-4 12-17 16-27 8L64 67l-28 25 28-49Z"/>
    <path fill="#20164d" opacity=".55" d="m64 67 34-19 35 24-34 15Z"/>
  </g>
  <text x="178" y="80" fill="url(#text)" font-family="Inter,Segoe UI,Arial,sans-serif" font-size="54" font-weight="500" letter-spacing="5">nexora</text>
</svg>
